<svg width="34" height="29" viewBox="0 0 34 29" fill="none" xmlns="http://www.w3.org/2000/svg">
<path d="M29 24V27C29 27.425 28.856 27.781 28.568 28.068C28.281 28.356 27.925 28.5 27.5 28.5C27.075 28.5 26.719 28.356 26.432 28.068C26.144 27.781 26 27.425 26 27V24H23C22.575 24 22.219 23.856 21.932 23.568C21.644 23.281 21.5 22.925 21.5 22.5C21.5 22.075 21.644 21.719 21.932 21.432C22.219 21.144 22.575 21 23 21H26V18C26 17.575 26.144 17.2185 26.432 16.9305C26.719 16.6435 27.075 16.5 27.5 16.5C27.925 16.5 28.281 16.6435 28.568 16.9305C28.856 17.2185 29 17.575 29 18V21H32C32.425 21 32.781 21.144 33.068 21.432C33.356 21.719 33.5 22.075 33.5 22.5C33.5 22.925 33.356 23.281 33.068 23.568C32.781 23.856 32.425 24 32 24H29ZM3.50002 24C3.07502 24 2.71902 23.856 2.43202 23.568C2.14402 23.281 2.00002 22.925 2.00002 22.5V15H1.73752C1.26252 15 0.875018 14.8185 0.575018 14.4555C0.275018 14.0935 0.175018 13.675 0.275018 13.2L1.77502 5.7C1.85002 5.35 2.02502 5.0625 2.30002 4.8375C2.57502 4.6125 2.88752 4.5 3.23752 4.5H23.2625C23.6125 4.5 23.925 4.6125 24.2 4.8375C24.475 5.0625 24.65 5.35 24.725 5.7L26.225 13.2C26.325 13.675 26.225 14.0935 25.925 14.4555C25.625 14.8185 25.2375 15 24.7625 15H24.5V18C24.5 18.425 24.356 18.781 24.068 19.068C23.781 19.356 23.425 19.5 23 19.5C22.575 19.5 22.219 19.356 21.932 19.068C21.644 18.781 21.5 18.425 21.5 18V15H15.5V22.5C15.5 22.925 15.3565 23.281 15.0695 23.568C14.7815 23.856 14.425 24 14 24H3.50002ZM5.00002 21H12.5V15H5.00002V21ZM3.50002 3C3.07502 3 2.71902 2.8565 2.43202 2.5695C2.14402 2.2815 2.00002 1.925 2.00002 1.5C2.00002 1.075 2.14402 0.7185 2.43202 0.4305C2.71902 0.1435 3.07502 0 3.50002 0H23C23.425 0 23.781 0.1435 24.068 0.4305C24.356 0.7185 24.5 1.075 24.5 1.5C24.5 1.925 24.356 2.2815 24.068 2.5695C23.781 2.8565 23.425 3 23 3H3.50002Z" fill="white"/>
</svg>
