<svg id="BG" xmlns="http://www.w3.org/2000/svg" xmlns:xlink="http://www.w3.org/1999/xlink" width="360" height="140" viewBox="0 0 360 140">
  <defs>
    <clipPath id="clip-path">
      <rect id="Rectangle_785" data-name="Rectangle 785" width="360" height="140" fill="#fff"/>
    </clipPath>
  </defs>
  <g id="Mask_Group_4" data-name="Mask Group 4" clip-path="url(#clip-path)">
    <rect id="Rectangle_784" data-name="Rectangle 784" width="360" height="140" fill="#eff8ff"/>
    <g id="Group_1909" data-name="Group 1909" transform="translate(221.414 -44.822)" opacity="0.2">
      <g id="Group_1906" data-name="Group 1906" transform="translate(0 0)" opacity="0.8">
        <rect id="Rectangle_732" data-name="Rectangle 732" width="232.418" height="232.418" fill="none"/>
        <path id="Path_712" data-name="Path 712" d="M204.39,498l-2.759-1.593A86.74,86.74,0,0,0,68.451,402.82l-11.8-6.809a8.673,8.673,0,0,0-8.673,15.021l6.55,3.781-.032.032a7.709,7.709,0,0,1-8.386,12.912l-1.158-.669h0l-6.352-3.668A11.564,11.564,0,0,0,27.041,443.45l17.252,9.961a3.842,3.842,0,0,1-4.767,5.915l-10.5-5.827a3.855,3.855,0,1,0-3.855,6.676l6.507,3.757A86.73,86.73,0,0,0,73.8,548.881H161.8a86.2,86.2,0,0,0,20.6-16.849l7.567,4.368a5.782,5.782,0,0,0,5.782-10.014l-6.157-3.555-2.724-1.573a5.782,5.782,0,0,1,5.782-10.015l2.777,1.6.3.172A8.673,8.673,0,0,0,204.39,498Z" transform="translate(-0.773 -356.444)" fill="#6a90b1"/>
        <path id="Path_713" data-name="Path 713" d="M197.112,555.068H173.021a.964.964,0,1,1,0-1.927h24.091a.964.964,0,1,1,0,1.927Zm-31.8,0H119.056a.964.964,0,1,1,0-1.927h46.255a.964.964,0,1,1,0,1.927Zm-53.965,0H65.091a.964.964,0,1,1,0-1.927h46.255a.964.964,0,1,1,0,1.927Zm-53.965,0H41.964a.964.964,0,1,1,0-1.927H57.382a.964.964,0,1,1,0,1.927Z" transform="translate(-1.49 -362.467)" fill="#00284a"/>
        <path id="Path_714" data-name="Path 714" d="M148.829,563.065H81.373a.964.964,0,0,1,0-1.928h67.456a.964.964,0,0,1,0,1.928Zm-82.874,0H58.246a.964.964,0,0,1,0-1.928h7.709a.964.964,0,0,1,0,1.928Zm-11.564,0H52.464a.964.964,0,0,1,0-1.928h1.927a.964.964,0,0,1,0,1.928Z" transform="translate(-1.872 -362.758)" fill="#00284a"/>
        <path id="Path_715" data-name="Path 715" d="M224.818,495.108a4.818,4.818,0,1,1,4.818-4.818A4.824,4.824,0,0,1,224.818,495.108Zm0-7.709a2.891,2.891,0,1,0,2.891,2.891A2.894,2.894,0,0,0,224.818,487.4Z" transform="translate(-7.996 -360.008)" fill="#6a90b1"/>
        <path id="Path_716" data-name="Path 716" d="M173.855,523.18a3.855,3.855,0,1,1,3.855-3.855A3.859,3.859,0,0,1,173.855,523.18Zm0-5.782a1.927,1.927,0,1,0,1.927,1.927A1.929,1.929,0,0,0,173.855,517.4Z" transform="translate(-6.179 -361.099)" fill="#fff"/>
        <path id="Path_717" data-name="Path 717" d="M76.036,430.326a4.818,4.818,0,1,1,4.818-4.818A4.824,4.824,0,0,1,76.036,430.326Zm0-7.709a2.891,2.891,0,1,0,2.891,2.891A2.893,2.893,0,0,0,76.036,422.616Z" transform="translate(-2.588 -357.654)" fill="#fff"/>
        <circle id="Ellipse_116" data-name="Ellipse 116" cx="2.891" cy="2.891" r="2.891" transform="translate(43.364 60.898)" fill="#6a90b1"/>
        <circle id="Ellipse_117" data-name="Ellipse 117" cx="3.855" cy="3.855" r="3.855" transform="translate(9.637 87.88)" fill="#6a90b1"/>
        <rect id="Rectangle_733" data-name="Rectangle 733" width="128.166" height="8.673" transform="translate(53.252 141.405)" fill="#6a90b1"/>
      </g>
    </g>
  </g>
  <g id="store_black_24dp" transform="translate(16.428 38)">
    <path id="Path_495" data-name="Path 495" d="M0,0H64V64H0Z" fill="none"/>
    <path id="Path_496" data-name="Path 496" d="M8.865,9.682H47.7A2.842,2.842,0,0,0,47.7,4H8.865a2.842,2.842,0,0,0,0,5.682ZM50.915,14.8A2.785,2.785,0,0,0,48.2,12.523H8.365A2.785,2.785,0,0,0,5.647,14.8L2.873,29a2.836,2.836,0,0,0,2.718,3.409h.5v14.2a2.816,2.816,0,0,0,2.774,2.841h22.19a2.816,2.816,0,0,0,2.774-2.841v-14.2h11.1v14.2a2.775,2.775,0,1,0,5.548,0v-14.2h.5A2.836,2.836,0,0,0,53.689,29ZM28.281,43.772H11.638V32.409H28.281Z" transform="translate(3.719 5.273)" fill="#0f4c81"/>
  </g>
</svg>
