<svg id="Component_146_2" data-name="Component 146 – 2" xmlns="http://www.w3.org/2000/svg" width="360" height="180" viewBox="0 0 360 180">
  <rect id="Rectangle_843" data-name="Rectangle 843" width="360" height="180" fill="#0f4c81"/>
  <path id="Path_877" data-name="Path 877" d="M0,130.5l6.675,2.675c6.65,2.575,20.075,8.075,33.325,6.65C53.325,138.5,66.75,130.5,80,134.5c13.325,4,26.75,20,40,21.325,13.325,1.425,26.75-12.075,40-14.65,13.325-2.675,26.75,5.325,40,16,13.325,10.575,26.75,24.075,40,22.65,13.325-1.325,26.75-17.325,40-29.325,13.325-12,26.75-20,40-22.675,13.325-2.575,26.75-.075,33.25,1.35L360,130.5v72H0Z" transform="translate(0 -22.5)" fill="#10528c"/>
  <path id="Path_878" data-name="Path 878" d="M0,146.5H6.675c6.65,0,20.075,0,33.325,5.325,13.325,5.425,26.75,15.925,40,17.35,13.325,1.325,26.75-6.675,40-8,13.325-1.425,26.75,4.075,40,6.65,13.325,2.675,26.75,2.675,40-5.325,13.325-8,26.75-24,40-29.325,13.325-5.425,26.75.075,40,6.65a314.166,314.166,0,0,1,40,24c13.325,9.425,26.75,19.925,33.25,25.35L360,194.5v8H0Z" transform="translate(0 -22.5)" fill="#125894"/>
  <path id="Path_879" data-name="Path 879" d="M0,170.5l6.675-5.325c6.65-5.425,20.075-15.925,33.325-16,13.325.075,26.75,10.575,40,16,13.325,5.325,26.75,5.325,40,4,13.325-1.425,26.75-3.925,40-2.675,13.325,1.25,26.75,6.75,40,6.675,13.325.075,26.75-5.425,40-10.675,13.325-5.25,26.75-10.75,40-4,13.325,6.75,26.75,25.25,40,30.675,13.325,5.325,26.75-2.675,33.25-6.675l6.75-4v24H0Z" transform="translate(0 -22.5)" fill="#145fa2"/>
</svg>
