<svg xmlns="http://www.w3.org/2000/svg" width="180" height="180" viewBox="0 0 180 180">
  <g id="Group_1927" data-name="Group 1927" transform="translate(-298.11 -355.275)">
    <g id="Group_1925" data-name="Group 1925" transform="translate(298.11 355.276)">
      <rect id="Rectangle_741" data-name="Rectangle 741" width="180" height="180" transform="translate(0 0)" fill="none"/>
      <path id="Path_727" data-name="Path 727" d="M462.053,473.57l-2.149-1.241A67.581,67.581,0,0,0,356.14,399.417l-9.19-5.305a6.757,6.757,0,1,0-6.757,11.7l5.1,2.946-.025.025a6.006,6.006,0,0,1-6.533,10.06l-.9-.521h0l-4.95-2.858a9.009,9.009,0,0,0-9.01,15.6l13.442,7.761a2.994,2.994,0,0,1-3.715,4.608l-8.179-4.54a3,3,0,1,0-3,5.2l5.069,2.927a67.573,67.573,0,0,0,32.82,66.185h68.558a67.158,67.158,0,0,0,16.047-13.128l5.9,3.4a4.5,4.5,0,1,0,4.5-7.8l-4.8-2.77-2.123-1.225a4.505,4.505,0,0,1,4.5-7.8l2.164,1.249.23.134a6.757,6.757,0,0,0,6.757-11.7Z" transform="translate(-303.41 -363.284)" fill="#6a90b1"/>
      <path id="Path_728" data-name="Path 728" d="M460.74,554.643H441.97a.751.751,0,0,1,0-1.5h18.77a.751.751,0,0,1,0,1.5Zm-24.777,0H399.925a.751.751,0,0,1,0-1.5h36.039a.751.751,0,1,1,0,1.5Zm-42.045,0H357.88a.751.751,0,1,1,0-1.5h36.039a.751.751,0,1,1,0,1.5Zm-42.045,0H339.861a.751.751,0,1,1,0-1.5h12.013a.751.751,0,0,1,0,1.5Z" transform="translate(-308.327 -404.583)" fill="#00284a"/>
      <path id="Path_729" data-name="Path 729" d="M425.441,562.64H372.885a.751.751,0,1,1,0-1.5h52.556a.751.751,0,1,1,0,1.5Zm-64.569,0h-6.006a.751.751,0,0,1,0-1.5h6.006a.751.751,0,0,1,0,1.5Zm-9.01,0h-1.5a.751.751,0,1,1,0-1.5h1.5a.751.751,0,1,1,0,1.5Z" transform="translate(-310.944 -406.576)" fill="#00284a"/>
      <path id="Path_730" data-name="Path 730" d="M521.864,492.979a3.754,3.754,0,1,1,3.754-3.754A3.758,3.758,0,0,1,521.864,492.979Zm0-6.006a2.252,2.252,0,1,0,2.252,2.252A2.255,2.255,0,0,0,521.864,486.973Z" transform="translate(-352.933 -387.72)" fill="#6a90b1"/>
      <path id="Path_731" data-name="Path 731" d="M471.113,521.477a3,3,0,1,1,3-3A3.006,3.006,0,0,1,471.113,521.477Zm0-4.5a1.5,1.5,0,1,0,1.5,1.5A1.5,1.5,0,0,0,471.113,516.973Z" transform="translate(-340.473 -395.196)" fill="#fff"/>
      <path id="Path_732" data-name="Path 732" d="M373.082,428.2a3.754,3.754,0,1,1,3.754-3.754A3.759,3.759,0,0,1,373.082,428.2Zm0-6.006a2.252,2.252,0,1,0,2.252,2.252A2.255,2.255,0,0,0,373.082,422.191Z" transform="translate(-315.857 -371.576)" fill="#fff"/>
      <circle id="Ellipse_124" data-name="Ellipse 124" cx="2.252" cy="2.252" r="2.252" transform="translate(33.786 47.447)" fill="#6a90b1"/>
      <circle id="Ellipse_125" data-name="Ellipse 125" cx="3.003" cy="3.003" r="3.003" transform="translate(7.508 68.47)" fill="#6a90b1"/>
    </g>
    <g id="Group_1926" data-name="Group 1926" transform="translate(350.665 409.276)">
      <circle id="Ellipse_126" data-name="Ellipse 126" cx="36.789" cy="36.789" r="36.789" transform="translate(3.756 2.253)" fill="#eef9ff"/>
      <path id="Path_733" data-name="Path 733" d="M407.15,505.283a39.021,39.021,0,1,1,35.926-54.366.752.752,0,1,1-1.382.593,37.545,37.545,0,1,0-1.074,31.751.751.751,0,1,1,1.337.683,39.046,39.046,0,0,1-34.808,21.338Zm36.437-26.473a.8.8,0,0,1-.234-.038.741.741,0,0,1-.435-.375.723.723,0,0,1-.052-.571,37.753,37.753,0,0,0,.7-20.745.765.765,0,0,1,.091-.571.723.723,0,0,1,.458-.338.76.76,0,0,1,.909.548,39.321,39.321,0,0,1-.721,21.571A.753.753,0,0,1,443.587,478.81Z" transform="translate(-368.108 -427.199)" fill="#00284a"/>
      <path id="Path_734" data-name="Path 734" d="M406.584,492.087a2.218,2.218,0,0,1-1.592-.661L393.159,479.6a2.259,2.259,0,0,1-.661-1.591,2.235,2.235,0,0,1,.661-1.592l3.191-3.183a2.309,2.309,0,0,1,3.183,0l6.518,6.517a.771.771,0,0,0,1.066,0l13.807-13.807a.763.763,0,0,1,1.059,0,.749.749,0,0,1,0,1.059l-13.807,13.807a2.257,2.257,0,0,1-1.584.661h-.016a2.254,2.254,0,0,1-1.583-.661l-6.518-6.517a.79.79,0,0,0-.533-.224.782.782,0,0,0-.533.224l-3.191,3.191a.717.717,0,0,0-.218.526.731.731,0,0,0,.226.525l11.825,11.833a.772.772,0,0,0,1.066,0l29.4-29.409a.735.735,0,0,0,0-1.059l-3.183-3.191a.764.764,0,0,0-.533-.218.756.756,0,0,0-.526.218L430.5,458.48h0l-.022.03a.786.786,0,0,1-1.066,0,.761.761,0,0,1,0-1.066l1.794-1.794a2.258,2.258,0,0,1,1.584-.661,2.214,2.214,0,0,1,1.6.661l3.191,3.184a2.257,2.257,0,0,1,0,3.191l-.18.172c-.008.016-.023.023-.038.038l-29.191,29.191A2.265,2.265,0,0,1,406.584,492.087ZM425.7,462.978a.73.73,0,0,1-.526-.225.735.735,0,0,1,0-1.059.762.762,0,0,1,1.059,0,.755.755,0,0,1-.533,1.284Z" transform="translate(-374.186 -434.124)" fill="#00284a"/>
    </g>
  </g>
</svg>
