<svg xmlns="http://www.w3.org/2000/svg" width="24" height="24" viewBox="0 0 24 24">
  <g id="Group_2697" data-name="Group 2697" transform="translate(-358.535 -713.096)">
    <path id="Path_876" data-name="Path 876" d="M360.478,731.115a1.683,1.683,0,0,1-.512-1.2,1.594,1.594,0,0,1,.487-1.2l6.05-6.075a1.521,1.521,0,0,1,.563-.363,1.87,1.87,0,0,1,1.275,0,1.51,1.51,0,0,1,.562.363l2.85,2.85,3.55-3.525h-.475a1.706,1.706,0,0,1-1.2-2.913,1.66,1.66,0,0,1,1.2-.487H379.4a1.646,1.646,0,0,1,1.213.487,1.616,1.616,0,0,1,.487,1.188v4.575a1.622,1.622,0,0,1-.5,1.212,1.694,1.694,0,0,1-2.9-1.212v-.5l-4.775,4.8a1.591,1.591,0,0,1-.537.35,1.71,1.71,0,0,1-.638.125,1.812,1.812,0,0,1-.65-.125,1.861,1.861,0,0,1-.575-.35l-2.825-2.85-4.875,4.875a1.632,1.632,0,0,1-2.35-.025Z" fill="#0f4c81"/>
    <rect id="Rectangle_841" data-name="Rectangle 841" width="24" height="24" transform="translate(358.535 713.096)" fill="none"/>
  </g>
</svg>
