<svg xmlns="http://www.w3.org/2000/svg" width="48" height="48" viewBox="0 0 48 48">
  <g id="Group_2708" data-name="Group 2708" transform="translate(-497.787 -320.283)">
    <rect id="Rectangle_806" data-name="Rectangle 806" width="48" height="48" transform="translate(497.787 320.283)" fill="none"/>
    <g id="Group_2494" data-name="Group 2494">
      <path id="Path_864" data-name="Path 864" d="M522.648,334.522a9.931,9.931,0,0,1,.765-3.828h-20.1a1.531,1.531,0,0,0-1.531,1.531v27.56a1.53,1.53,0,0,0,1.531,1.531h27.56a1.53,1.53,0,0,0,1.531-1.531V344.464A9.947,9.947,0,0,1,522.648,334.522Zm-12.057,22.966a.766.766,0,0,1-.766.766h-3.062a.766.766,0,0,1-.766-.766V340.646a.765.765,0,0,1,.766-.765h3.062a.765.765,0,0,1,.766.765Zm9.186,0a.765.765,0,0,1-.765.766H515.95a.766.766,0,0,1-.766-.766V334.522a.766.766,0,0,1,.766-.766h3.062a.765.765,0,0,1,.765.766Zm8.421,0a.765.765,0,0,1-.765.766h-3.062a.766.766,0,0,1-.766-.766V346.771a.766.766,0,0,1,.766-.766h3.062a.765.765,0,0,1,.765.766Z" fill="#0f4c81"/>
      <path id="Path_865" data-name="Path 865" d="M541.432,342.728,538.324,339a7.265,7.265,0,1,0-2.35,1.963l3.1,3.726a1.531,1.531,0,1,0,2.353-1.96Zm-8.832-3.613a4.593,4.593,0,1,1,4.594-4.593A4.593,4.593,0,0,1,532.6,339.115Z" fill="#0f4c81"/>
    </g>
  </g>
</svg>
