<svg xmlns="http://www.w3.org/2000/svg" width="24" height="24" viewBox="0 0 24 24">
  <g id="Group_2696" data-name="Group 2696" transform="translate(-360.033 -676.62)">
    <path id="Path_875" data-name="Path 875" d="M372.133,697.62a.984.984,0,0,1-1-1,.974.974,0,0,1,.075-.363,1,1,0,0,1,.225-.337l4.625-4.625-.725-.725-4.6,4.625a1.046,1.046,0,0,1-.325.225.944.944,0,0,1-.375.075.984.984,0,0,1-1-1,.987.987,0,0,1,.075-.413.975.975,0,0,1,.2-.287l4.625-4.625-.7-.7-4.625,4.6a1.046,1.046,0,0,1-.325.225,1.008,1.008,0,0,1-.4.075,1.025,1.025,0,0,1-1-1,.937.937,0,0,1,.075-.375,1.034,1.034,0,0,1,.225-.325l4.625-4.625-.725-.7-4.6,4.625a.967.967,0,0,1-.3.2,1.081,1.081,0,0,1-.425.075.984.984,0,0,1-1-1,.937.937,0,0,1,.075-.375,1.034,1.034,0,0,1,.225-.325l5.575-5.575,3.75,3.775a2.072,2.072,0,0,0,.65.437,1.88,1.88,0,0,0,.75.163,1.984,1.984,0,0,0,1.4-.563,1.883,1.883,0,0,0,.6-1.437,2.294,2.294,0,0,0-.125-.725,1.805,1.805,0,0,0-.45-.7l-4.475-4.475a3.041,3.041,0,0,1,.95-.613,2.773,2.773,0,0,1,1.05-.212,3.3,3.3,0,0,1,1.2.212,2.885,2.885,0,0,1,1,.663l4.225,4.25a2.875,2.875,0,0,1,.663,1,3.535,3.535,0,0,1,.212,1.275,2.5,2.5,0,0,1-.225,1.012,3.075,3.075,0,0,1-.65.938l-8.325,8.35a1,1,0,0,1-.35.25A1.119,1.119,0,0,1,372.133,697.62Zm-8.575-8-.65-.65a2.684,2.684,0,0,1-.65-.95,3.01,3.01,0,0,1-.225-1.15,2.856,2.856,0,0,1,.25-1.2,3.1,3.1,0,0,1,.625-.925l4.225-4.25a3,3,0,0,1,.95-.638,2.7,2.7,0,0,1,1.075-.237,3.532,3.532,0,0,1,1.2.188,2.792,2.792,0,0,1,1.025.687l5.125,5.125a1.034,1.034,0,0,1,.225.325.937.937,0,0,1,.075.375,1.025,1.025,0,0,1-1,1,.972.972,0,0,1-.375-.063,1.069,1.069,0,0,1-.325-.237l-4.5-4.45Z" fill="#0f4c81"/>
    <rect id="Rectangle_840" data-name="Rectangle 840" width="24" height="24" transform="translate(360.033 676.62)" fill="none"/>
  </g>
</svg>
