<svg xmlns="http://www.w3.org/2000/svg" width="36" height="36" viewBox="0 0 36 36">
  <g id="Group_2543" data-name="Group 2543" transform="translate(193 -2322)">
    <path id="Path_712" data-name="Path 712" d="M-1802.362,226.911a.633.633,0,0,0-.634-.633h-7.912v-5.064a.633.633,0,0,0-.633-.633H-1833.4a.634.634,0,0,0-.633.633v17.723a.633.633,0,0,0,.633.633h1.65a4.745,4.745,0,0,0,4.7,4.114,4.744,4.744,0,0,0,4.7-4.114h8.64a4.745,4.745,0,0,0,4.7,4.114,4.745,4.745,0,0,0,4.7-4.114h2.262a.317.317,0,0,0,.317-.317v-6.33Zm-24.687,14.559a2.532,2.532,0,0,1-2.533-2.532,2.532,2.532,0,0,1,2.533-2.532,2.532,2.532,0,0,1,2.532,2.532A2.532,2.532,0,0,1-1827.049,241.469Zm18.04,0a2.532,2.532,0,0,1-2.532-2.532,2.532,2.532,0,0,1,2.532-2.532,2.532,2.532,0,0,1,2.532,2.532A2.532,2.532,0,0,1-1809.009,241.469Zm5.341-8.387h-2.9a.315.315,0,0,1-.135-.03l-2.445-1.15a.316.316,0,0,1-.181-.286v-3.6a.316.316,0,0,1,.316-.316h4.783a.316.316,0,0,1,.314.279l.559,4.747A.317.317,0,0,1-1803.668,233.082Z" transform="translate(1642.826 2108.597)" fill="#0f4c81"/>
    <rect id="Rectangle_800" data-name="Rectangle 800" width="36" height="36" transform="translate(-193 2322)" fill="none"/>
  </g>
</svg>
