<svg xmlns="http://www.w3.org/2000/svg" width="24" height="24" viewBox="0 0 24 24">
  <g id="Group_2692" data-name="Group 2692" transform="translate(-359.77 -511.274)">
    <path id="Path_495" data-name="Path 495" d="M359.77,511.274h24v24h-24Z" fill="none"/>
    <g id="Group_2693" data-name="Group 2693">
      <g id="Group_2692-2" data-name="Group 2692">
        <path id="Path_869" data-name="Path 869" d="M363.818,517h13.135a.963.963,0,1,0,0-1.926H363.818a.963.963,0,1,0,0,1.926Z" fill="#0f4c81"/>
        <path id="Path_870" data-name="Path 870" d="M372.262,529.4v-4.7h1.916a3.385,3.385,0,0,1,4.485-2.783l-.621-3.188a.943.943,0,0,0-.92-.771H363.649a.943.943,0,0,0-.92.771l-.938,4.815a.961.961,0,0,0,.745,1.136,1.03,1.03,0,0,0,.175.02h.168v4.815a.955.955,0,0,0,.939.963h7.506a.934.934,0,0,0,.749-.413A2.346,2.346,0,0,1,372.262,529.4Zm-1.877-.844h-5.629v-3.852h5.629Z" fill="#0f4c81"/>
      </g>
      <path id="Path_871" data-name="Path 871" d="M377.576,527.276a2.1,2.1,0,1,0-2.1-2.1A2.1,2.1,0,0,0,377.576,527.276Zm0,1.048c-1.4,0-4.194.7-4.194,2.1v1.048h8.388v-1.048C381.77,529.027,378.976,528.324,377.576,528.324Z" fill="#0f4c81"/>
    </g>
  </g>
</svg>
