<svg xmlns="http://www.w3.org/2000/svg" width="24" height="24" viewBox="0 0 24 24">
  <g id="Group_1442" data-name="Group 1442" transform="translate(-551 -1297.609)">
    <g id="Group_1439" data-name="Group 1439">
      <g id="Group_1438" data-name="Group 1438">
        <rect id="Rectangle_623" data-name="Rectangle 623" width="24" height="24" transform="translate(551 1297.609)" fill="none"/>
        <rect id="Rectangle_624" data-name="Rectangle 624" width="24" height="24" transform="translate(551 1297.609)" fill="none"/>
      </g>
    </g>
    <g id="Group_1441" data-name="Group 1441">
      <path id="Path_541" data-name="Path 541" d="M565.6,1316.511a5.006,5.006,0,0,1,5-5,4.933,4.933,0,0,1,1.4.225v-3.067a3.262,3.262,0,0,0,.9-3.17l-1.05-3.37a1.963,1.963,0,0,0-1.91-1.52H556.05a1.962,1.962,0,0,0-1.9,1.52l-1.05,3.37a3.3,3.3,0,0,0,.9,3.17v7.94a2.007,2.007,0,0,0,2,2h10.075A4.939,4.939,0,0,1,565.6,1316.511Zm4.312-13.912,1.05,3.37a1.306,1.306,0,0,1-1.19,1.64,1.251,1.251,0,0,1-1.21-1.14l-.58-3.86Zm-12.47,3.87a1.258,1.258,0,0,1-1.21,1.14,1.311,1.311,0,0,1-1.23-1.387,1.273,1.273,0,0,1,.04-.253l1.01-3.36h1.97Zm4.56-.17a1.265,1.265,0,1,1-2.528.1,1.2,1.2,0,0,1,.018-.267l.55-3.52H562Zm2.018.266a1.317,1.317,0,0,1-.018-.266v-3.69h1.96l.54,3.52a1.26,1.26,0,1,1-2.482.436Z" fill="#0f4c81"/>
      <path id="Path_542" data-name="Path 542" d="M570.6,1312.511a4,4,0,1,0,4,4A4,4,0,0,0,570.6,1312.511Zm.8,5.921a.8.8,0,1,1-1.6,0v-1.6a.8.8,0,1,1,1.6,0Zm-.8-3.042a.8.8,0,1,1,.8-.8A.8.8,0,0,1,570.6,1315.39Z" fill="#0f4c81"/>
    </g>
  </g>
</svg>
