<svg xmlns="http://www.w3.org/2000/svg" width="24" height="24" viewBox="0 0 24 24">
  <g id="Group_1364" data-name="Group 1364" transform="translate(-723.522 -1256.478)">
    <path id="Path_518" data-name="Path 518" d="M723.522,1256.478h24v24h-24Z" fill="none"/>
    <path id="Path_519" data-name="Path 519" d="M744.932,1268.058l-9-9a1.987,1.987,0,0,0-1.41-.58h-7a2.006,2.006,0,0,0-2,2v7a2,2,0,0,0,.59,1.42l9,9a1.987,1.987,0,0,0,1.41.58,1.955,1.955,0,0,0,1.41-.59l7-7a1.955,1.955,0,0,0,.59-1.41A2.02,2.02,0,0,0,744.932,1268.058Zm-15.91-4.58a1.5,1.5,0,1,1,1.5-1.5A1.5,1.5,0,0,1,729.022,1263.478Zm5.377,7.423a1.7,1.7,0,1,1,0-2.4A1.7,1.7,0,0,1,734.4,1270.9Zm2.95,2.7a.849.849,0,0,1-1.7,0v-7.2a.849.849,0,0,1,1.7,0Zm3.654-2.1a1.7,1.7,0,1,1,0-2.4A1.7,1.7,0,0,1,741,1271.5Z" fill="#0f4c81"/>
  </g>
</svg>
