<svg xmlns="http://www.w3.org/2000/svg" width="24" height="24" viewBox="0 0 24 24">
  <g id="Group_2546" data-name="Group 2546" transform="translate(-360.696 -588.826)">
    <rect id="Rectangle_808" data-name="Rectangle 808" width="24" height="24" transform="translate(360.696 588.826)" fill="none"/>
    <path id="Path_199" data-name="Path 199" d="M381.045,595.432l-3.141-1.687-9.242,4.965-2.043-1.112,9.228-4.959-2.832-1.522a1.227,1.227,0,0,0-1.162,0l-8.03,4.314a1.23,1.23,0,0,0-.647,1.081v8.481a1.227,1.227,0,0,0,.647,1.08l8.03,4.315a1.227,1.227,0,0,0,1.162,0l8.03-4.315a1.224,1.224,0,0,0,.645-1.08v-8.481A1.224,1.224,0,0,0,381.045,595.432ZM368.52,603.4l-2.044-1.008.062-4.608,2.042,1.114Z" fill="#0f4c81"/>
  </g>
</svg>
