<svg xmlns="http://www.w3.org/2000/svg" width="80" height="80" viewBox="0 0 80 80">
  <g id="Group_2098" data-name="Group 2098" transform="translate(-125 -79.313)">
    <circle id="Ellipse_133" data-name="Ellipse 133" cx="40" cy="40" r="40" transform="translate(125 79.313)" fill="#0f4c81"/>
    <g id="Group_2097" data-name="Group 2097" transform="translate(144.733 104.241)">
      <path id="Path_765" data-name="Path 765" d="M174.469,139.494a1.05,1.05,0,0,1-.748-.313l-1.438-1.457a1.051,1.051,0,1,1,1.5-1.476l.69.7,2.018-2.044a1.051,1.051,0,0,1,1.5,1.476l-2.765,2.8A1.05,1.05,0,0,1,174.469,139.494Z" transform="translate(-166.658 -130.036)" fill="#fff"/>
      <path id="Path_766" data-name="Path 766" d="M206.883,139.318H191.472a1.051,1.051,0,0,1,0-2.1h15.411a1.051,1.051,0,1,1,0,2.1Z" transform="translate(-175.263 -131.262)" fill="#fff"/>
      <path id="Path_767" data-name="Path 767" d="M206.883,152.453H191.472a1.051,1.051,0,0,1,0-2.1h15.411a1.051,1.051,0,1,1,0,2.1Z" transform="translate(-175.263 -137.392)" fill="#fff"/>
      <path id="Path_768" data-name="Path 768" d="M214.238,165.588h-7a1.051,1.051,0,1,1,0-2.1h7a1.051,1.051,0,1,1,0,2.1Z" transform="translate(-182.618 -143.522)" fill="#fff"/>
      <path id="Path_769" data-name="Path 769" d="M203.121,126.052H165.293a2.1,2.1,0,0,0-2.1,2.1v20.079a4.214,4.214,0,0,1,2.8-.036V128.854h33.853v22.417H185.674c.005.054.014.107.018.162h0c.055.857.066,1.749.05,2.639h17.379a2.1,2.1,0,0,0,2.1-2.1V128.154A2.1,2.1,0,0,0,203.121,126.052Zm-.594,15.412a1.4,1.4,0,1,1,1.4-1.4A1.4,1.4,0,0,1,202.527,141.464Z" transform="translate(-162.556 -126.052)" fill="#fff"/>
      <path id="Path_770" data-name="Path 770" d="M183.039,162.861a2.152,2.152,0,0,0-2.1-2.1,2.092,2.092,0,0,0-1.157.349,2.09,2.09,0,0,0-3.609-1.066,2.092,2.092,0,0,0-3.5-1.539v-6.15a2.1,2.1,0,0,0-4.2,0v13.04l-2.757-3.284a2.1,2.1,0,1,0-3.218,2.7l7.188,8.664H182.29A53.876,53.876,0,0,0,183.039,162.861Z" transform="translate(-162 -137.345)" fill="#fff"/>
    </g>
  </g>
</svg>
