<svg xmlns="http://www.w3.org/2000/svg" width="24" height="24" viewBox="0 0 24 24">
  <g id="Group_2695" data-name="Group 2695" transform="translate(-360.685 -635.159)">
    <rect id="Rectangle_839" data-name="Rectangle 839" width="24" height="24" transform="translate(360.685 635.159)" fill="none"/>
    <g id="Group_2695-2" data-name="Group 2695">
      <path id="Path_873" data-name="Path 873" d="M365.1,644.035l9.139-4.912-2.805-1.507a1.216,1.216,0,0,0-1.151,0l-7.952,4.273a1.215,1.215,0,0,0-.641,1.07v8.4a1.215,1.215,0,0,0,.641,1.071l7.952,4.273a1.222,1.222,0,0,0,1.151,0l3.145-1.69a5.236,5.236,0,0,1,3.672-9.474,5.124,5.124,0,0,1,1.775.568v-3.147a1.212,1.212,0,0,0-.639-1.069l-3.111-1.671-9.153,4.917m-2.1-.918,2.023,1.1m0,0h0l-.06,4.459-2.024-1,.061-4.563" fill="#0f4c81"/>
      <path id="Path_874" data-name="Path 874" d="M381.058,653.339H380.6l-.161-.156a3.766,3.766,0,1,0-.4.405l.156.161v.457l2.456,2.455a.608.608,0,0,0,.86-.861Zm-3.466,0a2.6,2.6,0,1,1,2.6-2.6A2.6,2.6,0,0,1,377.592,653.339Z" fill="#0f4c81"/>
    </g>
  </g>
</svg>
