<svg id="Group_1348" data-name="Group 1348" xmlns="http://www.w3.org/2000/svg" width="101.393" height="86.86" viewBox="0 0 101.393 86.86">
  <path id="Path_500" data-name="Path 500" d="M557.349,1219.421h59.431a4.572,4.572,0,1,0,0-9.143H557.349a4.572,4.572,0,0,0,0,9.143Z" transform="translate(-547.389 -1210.278)" fill="#6a90b1"/>
  <path id="Path_501" data-name="Path 501" d="M616.419,1258.994h9.143v-13.715h.823a4.593,4.593,0,0,0,4.48-5.485l-4.571-22.858a4.562,4.562,0,0,0-4.48-3.658H560.737a4.561,4.561,0,0,0-4.48,3.658l-4.572,22.858a4.593,4.593,0,0,0,4.48,5.485h.823v22.858a4.585,4.585,0,0,0,4.572,4.572h32a4.585,4.585,0,0,0,4.572-4.572v-22.858h18.286Zm-27.43,4.572H566.131v-18.287H588.99Z" transform="translate(-551.599 -1199.563)" fill="#6a90b1"/>
  <path id="Path_502" data-name="Path 502" d="M597.779,1234.992h-9.143v-9.143a4.572,4.572,0,0,0-9.144,0v9.143H570.35a4.572,4.572,0,0,0,0,9.144h9.143v9.143a4.572,4.572,0,0,0,9.144,0v-9.143h9.143a4.572,4.572,0,0,0,0-9.144Z" transform="translate(-500.958 -1170.99)" fill="#6a90b1"/>
</svg>
