<svg id="Group_337" data-name="Group 337" xmlns="http://www.w3.org/2000/svg" xmlns:xlink="http://www.w3.org/1999/xlink" width="27.778" height="27.83" viewBox="0 0 27.778 27.83">
  <defs>
    <clipPath id="clip-path">
      <rect id="Rectangle_79" data-name="Rectangle 79" width="27.778" height="27.778" fill="none"/>
    </clipPath>
  </defs>
  <rect id="Rectangle_78" data-name="Rectangle 78" width="27.778" height="27.778" fill="#006eb8"/>
  <g id="Group_336" data-name="Group 336">
    <g id="Group_335" data-name="Group 335" clip-path="url(#clip-path)">
      <path id="Path_13" data-name="Path 13" d="M27.7,51.692H-.167L-.121,39.84a31.221,31.221,0,0,0,3.866.787,12.329,12.329,0,0,0,4.745-.787A29.9,29.9,0,0,0,13.7,37.294a45.494,45.494,0,0,1,5.764-3.171,27.134,27.134,0,0,1,5.66-1.007,9.31,9.31,0,0,1,2.535.573" transform="translate(0.121 -23.914)" fill="#29baed"/>
    </g>
  </g>
  <path id="wave" d="M27.926,31.261s-2.252-1.72-7.147-1.426c-4.931.3-10.3,4.546-13.654,6.226A12.7,12.7,0,0,1,.95,37.53c-.14-.015-.19-.02-.327-.039-.17-.024-.37-.046-.37-.046a13.416,13.416,0,0,0,7.316.565c5.1-1.364,9.735-5.9,15.034-6.8A11.451,11.451,0,0,1,27.926,31.261Z" transform="translate(-0.183 -21.523)" fill="#fff"/>
  <path id="wave-2" data-name="wave" d="M27.926,17.261s-2.252-1.72-7.147-1.426c-4.931.3-10.3,4.546-13.654,6.226A12.7,12.7,0,0,1,.95,23.53c-.14-.015-.19-.02-.327-.039-.17-.024-.37-.046-.37-.046a13.416,13.416,0,0,0,7.316.565c5.1-1.364,9.735-5.9,15.034-6.8A11.451,11.451,0,0,1,27.926,17.261Z" transform="translate(-0.183 -11.412)" fill="#fff"/>
  <path id="wave-3" data-name="wave" d="M27.926,3.261s-2.252-1.72-7.147-1.426c-4.931.3-10.3,4.546-13.654,6.226A12.7,12.7,0,0,1,.95,9.53C.81,9.515.76,9.51.623,9.49c-.17-.024-.37-.046-.37-.046a13.416,13.416,0,0,0,7.316.565c5.1-1.364,9.735-5.9,15.034-6.8A11.451,11.451,0,0,1,27.926,3.261Z" transform="translate(-0.183 -1.301)" fill="#fff"/>
  <g id="ASA_OUTLINE" data-name="ASA OUTLINE" transform="translate(1.026 20.945)">
    <path id="Path_14" data-name="Path 14" d="M4.989,82.669h-1.3L8.593,76h2.622l.417,6.671H9.5l-.269-5.105s-.009-.13-.009-.269a.164.164,0,0,0-.037-.093.166.166,0,0,0-.259.009.157.157,0,0,0-.028.037l-.083.121s-.889,1.26-1.77,2.511a.719.719,0,0,0-.1.185.152.152,0,0,0,.083.185.21.21,0,0,0,.148.019H9l-.241.75-.139-.009A.871.871,0,0,1,8.5,81c-.074,0-.158-.009-.241-.009-1.575,0-2.066.194-2.668.926a.339.339,0,0,1-.037.046s-.129.167-.25.334C5.24,82.382,5.165,82.474,4.989,82.669Z" transform="translate(-3.692 -75.832)" fill="#fff"/>
    <path id="Path_15" data-name="Path 15" d="M40.149,81.923l-.139-.037V80.662l.065.037.056.037a4.566,4.566,0,0,0,1.186.473,4.149,4.149,0,0,0,1.446.139,2.373,2.373,0,0,0,1.566-.621.641.641,0,0,0-.2-1.075,3.5,3.5,0,0,0-.982-.25,2.169,2.169,0,0,1-.259-.046,5.781,5.781,0,0,1-1.529-.371,1.447,1.447,0,0,1-.5-2.2c.519-.751,1.566-1.269,3.688-1.38a13.873,13.873,0,0,1,1.779.056c.13.009.26.018.389.037l.343.037.259.028.1.009.129.019L47,77.79h-.88l.009-.111a1.057,1.057,0,0,1,.009-.13,1.955,1.955,0,0,0-.009-.232c-.046-.806-.371-1.093-1.251-1.112h-.232a2.055,2.055,0,0,0-1.7.63.689.689,0,0,0,.25,1.1,4.088,4.088,0,0,0,1,.324c.111.019.222.046.333.074a6.092,6.092,0,0,1,1.446.454,1.348,1.348,0,0,1,.269,2.363,3.585,3.585,0,0,1-.927.565,6.468,6.468,0,0,1-1.658.473,7.43,7.43,0,0,1-3.123-.176,2.753,2.753,0,0,1-.269-.065A.847.847,0,0,1,40.149,81.923Z" transform="translate(-29.922 -75.4)" fill="#fff"/>
    <path id="Path_16" data-name="Path 16" d="M69.019,82.669h-1.3L72.624,76h2.622l.417,6.671H73.531l-.269-5.105s-.009-.13-.009-.269a.164.164,0,0,0-.037-.093.166.166,0,0,0-.259.009.157.157,0,0,0-.028.037l-.083.121s-.889,1.26-1.77,2.511a.727.727,0,0,0-.1.185.153.153,0,0,0,.083.185.21.21,0,0,0,.148.019h1.825l-.241.75-.139-.009a.868.868,0,0,1-.12-.009c-.074,0-.158-.009-.241-.009-1.575,0-2.066.194-2.669.926a.327.327,0,0,1-.037.046s-.13.167-.25.334C69.269,82.382,69.2,82.474,69.019,82.669Z" transform="translate(-49.936 -75.832)" fill="#fff"/>
  </g>
</svg>
