<svg xmlns="http://www.w3.org/2000/svg" width="59.546" height="53.591" viewBox="0 0 59.546 53.591">
  <g id="Group_686" data-name="Group 686" transform="translate(-265.947 -51)">
    <circle id="Ellipse_58" data-name="Ellipse 58" cx="9.527" cy="9.527" r="9.527" transform="translate(286.191 71.246)" fill="#9e9e9e"/>
    <path id="Path_182" data-name="Path 182" d="M286.788,51l-5.448,5.955H271.9a5.972,5.972,0,0,0-5.955,5.955V98.637a5.972,5.972,0,0,0,5.955,5.955h47.637a5.972,5.972,0,0,0,5.955-5.955V62.909a5.972,5.972,0,0,0-5.955-5.955H310.1L304.652,51Zm8.932,44.659a14.886,14.886,0,1,1,14.886-14.886A14.892,14.892,0,0,1,295.72,95.659Z" transform="translate(0)" fill="#9e9e9e"/>
  </g>
</svg>
