<svg id="Group_340" data-name="Group 340" xmlns="http://www.w3.org/2000/svg" xmlns:xlink="http://www.w3.org/1999/xlink" width="27.778" height="27.782" viewBox="0 0 27.778 27.782">
  <defs>
    <clipPath id="clip-path">
      <rect id="Rectangle_81" data-name="Rectangle 81" width="27.778" height="27.778" fill="none"/>
    </clipPath>
  </defs>
  <rect id="Rectangle_80" data-name="Rectangle 80" width="27.778" height="27.778" fill="#006eb8"/>
  <g id="Group_339" data-name="Group 339">
    <g id="Group_338" data-name="Group 338" clip-path="url(#clip-path)">
      <path id="Path_17" data-name="Path 17" d="M27.7,51.692H-.167L-.121,39.84a31.221,31.221,0,0,0,3.866.787,12.329,12.329,0,0,0,4.745-.787A29.9,29.9,0,0,0,13.7,37.294a45.494,45.494,0,0,1,5.764-3.171,27.134,27.134,0,0,1,5.66-1.007,9.31,9.31,0,0,1,2.535.573" transform="translate(0.121 -23.914)" fill="#29baed"/>
    </g>
  </g>
  <path id="wave" d="M27.926,31.261s-2.252-1.72-7.147-1.426c-4.931.3-10.3,4.546-13.654,6.226A12.7,12.7,0,0,1,.95,37.53c-.14-.015-.19-.02-.327-.039-.17-.024-.37-.046-.37-.046a13.416,13.416,0,0,0,7.316.565c5.1-1.364,9.735-5.9,15.034-6.8A11.451,11.451,0,0,1,27.926,31.261Z" transform="translate(-0.183 -21.523)" fill="#fff"/>
  <path id="wave-2" data-name="wave" d="M27.926,17.261s-2.252-1.72-7.147-1.426c-4.931.3-10.3,4.546-13.654,6.226A12.7,12.7,0,0,1,.95,23.53c-.14-.015-.19-.02-.327-.039-.17-.024-.37-.046-.37-.046a13.416,13.416,0,0,0,7.316.565c5.1-1.364,9.735-5.9,15.034-6.8A11.451,11.451,0,0,1,27.926,17.261Z" transform="translate(-0.183 -11.412)" fill="#fff"/>
  <path id="wave-3" data-name="wave" d="M27.926,3.261s-2.252-1.72-7.147-1.426c-4.931.3-10.3,4.546-13.654,6.226A12.7,12.7,0,0,1,.95,9.53C.81,9.515.76,9.51.623,9.49c-.17-.024-.37-.046-.37-.046a13.416,13.416,0,0,0,7.316.565c5.1-1.364,9.735-5.9,15.034-6.8A11.451,11.451,0,0,1,27.926,3.261Z" transform="translate(-0.183 -1.301)" fill="#fff"/>
  <g id="TVIP_OUTLINE" data-name="TVIP OUTLINE" transform="translate(0.444 20.921)">
    <path id="Path_18" data-name="Path 18" d="M3.627,76.135H1.6l.21-.819H8.5l-.21.819H8.038a5.9,5.9,0,0,0-.877.048c-.753.1-.915.209-1.182.724a2.857,2.857,0,0,0-.152.5c-.6,2.392-1.191,4.774-1.191,4.774H2.3L3.76,76.335a.129.129,0,0,0,.048-.086.1.1,0,0,0-.067-.1A.486.486,0,0,0,3.627,76.135Z" transform="translate(-1.597 -75.316)" fill="#fff"/>
    <path id="Path_19" data-name="Path 19" d="M29.248,82.177l-.724-6.861h2.134s.229,2.782.467,5.555c.019.228.038.295.086.352a.1.1,0,0,0,.143.01,1.107,1.107,0,0,0,.133-.162c.047-.1.1-.191.1-.191L33.4,77.765a1.956,1.956,0,0,0,.257-.476c.267-.658,0-1.153-.591-1.249a1.864,1.864,0,0,0-.458-.028c-.171.009-.343.009-.343.009l-.067.009.181-.714h3.659l-4.2,6.861Z" transform="translate(-21.044 -75.316)" fill="#fff"/>
    <path id="Path_20" data-name="Path 20" d="M57.728,82.177H55.479l1.239-4.984.067-.248a1.4,1.4,0,0,1,.029-.152c.009-.067.019-.124.028-.181.019-.467-.124-.61-.658-.639A1.226,1.226,0,0,0,56,75.964h-.1l-.086.009.257-.657h3.373Z" transform="translate(-40.512 -75.316)" fill="#fff"/>
    <path id="Path_21" data-name="Path 21" d="M70.359,82.177H68.1l1.715-6.861h4.193c.133,0,.257.009.381.019a3.9,3.9,0,0,1,1.524.41,1.818,1.818,0,0,1,.238,3.02c-.829.867-2.239,1.4-4.526,1.334-.1-.009-.181-.009-.267-.019l.162-.648.162-.01h.143l.334-.029c1.363-.181,2.011-.648,2.239-1.305a1.43,1.43,0,0,0-1.115-2,1.494,1.494,0,0,0-.3-.028H71.884Z" transform="translate(-49.628 -75.316)" fill="#fff"/>
  </g>
</svg>
