<svg xmlns="http://www.w3.org/2000/svg" width="22.177" height="19.004" viewBox="0 0 22.177 19.004">
  <g id="Group_1375" data-name="Group 1375" transform="translate(-721.613 -981.196)">
    <g id="Group_1374" data-name="Group 1374">
      <path id="Path_530" data-name="Path 530" d="M723.792,983.2h13a1,1,0,0,0,0-2h-13a1,1,0,0,0,0,2Z" fill="#0f4c81"/>
      <path id="Path_531" data-name="Path 531" d="M739.79,992.2a4,4,0,1,0,4,4A4,4,0,0,0,739.79,992.2Zm0,6.5a.5.5,0,0,1,0-1,1.5,1.5,0,1,0-1.483-1.668l.269-.066a.4.4,0,0,1,.48.5l-.449,1.55a.4.4,0,0,1-.672.166l-1.119-1.164a.4.4,0,0,1,.193-.666l.3-.073a.522.522,0,0,1-.016-.079,2.5,2.5,0,1,1,2.5,2.5Z" fill="#0f4c81"/>
      <path id="Path_532" data-name="Path 532" d="M735.792,993.226a5.02,5.02,0,0,1,2-1.607V991.2h.18a1,1,0,0,0,.98-1.2l-1-5a1,1,0,0,0-.98-.8h-13.36a1,1,0,0,0-.98.8l-1,5a1,1,0,0,0,.98,1.2h.18v5a1,1,0,0,0,1,1h7a1,1,0,0,0,1-1v-5h4Zm-6,1.97h-5v-4h5Z" fill="#0f4c81"/>
    </g>
  </g>
</svg>
