<svg xmlns="http://www.w3.org/2000/svg" width="48" height="48" viewBox="0 0 48 48">
  <g id="Group_2707" data-name="Group 2707" transform="translate(-5654 4256)">
    <circle id="Ellipse_28" data-name="Ellipse 28" cx="24" cy="24" r="24" transform="translate(5654 -4256)" fill="#fff"/>
    <g id="store_black_24dp" transform="translate(5665.75 -4244.25)">
      <path id="Path_495" data-name="Path 495" d="M0,0H24.5V24.5H0Z" fill="none"/>
      <path id="Path_496" data-name="Path 496" d="M5.143,6.188H20.062a1.094,1.094,0,0,0,0-2.187H5.143a1.094,1.094,0,0,0,0,2.188ZM21.3,8.156a1.071,1.071,0,0,0-1.044-.875H4.951a1.071,1.071,0,0,0-1.044.875L2.841,13.625a1.091,1.091,0,0,0,1.044,1.313h.192v5.469A1.083,1.083,0,0,0,5.143,21.5h8.525a1.083,1.083,0,0,0,1.066-1.094V14.938H19v5.469a1.066,1.066,0,1,0,2.131,0V14.938h.192a1.091,1.091,0,0,0,1.044-1.312ZM12.6,19.313H6.209V14.938H12.6Z" transform="translate(-0.353 -0.5)" fill="#0f4c81"/>
    </g>
  </g>
</svg>
