<svg id="local_shipping_black_24dp" xmlns="http://www.w3.org/2000/svg" width="24" height="24" viewBox="0 0 24 24">
  <path id="Path_438" data-name="Path 438" d="M0,0H24V24H0Z" fill="none"/>
  <path id="Path_439" data-name="Path 439" d="M20.323,8.979H17.712V6.49A2.323,2.323,0,0,0,15.623,4H3.089A2.323,2.323,0,0,0,1,6.49v11.2a2.323,2.323,0,0,0,2.089,2.49c0,2.066,1.4,3.734,3.134,3.734s3.134-1.668,3.134-3.734h6.267c0,2.066,1.4,3.734,3.134,3.734s3.134-1.668,3.134-3.734h1.045a1.161,1.161,0,0,0,1.045-1.245V14.792a2.835,2.835,0,0,0-.418-1.494l-2.4-3.822a1.012,1.012,0,0,0-.836-.5ZM6.223,21.427a1.264,1.264,0,0,1,0-2.49,1.264,1.264,0,0,1,0,2.49Zm14.1-10.581,2.047,3.112H17.712V10.846ZM18.757,21.427a1.264,1.264,0,0,1,0-2.49,1.264,1.264,0,0,1,0,2.49Z" transform="translate(-0.49 -1.958)" fill="#0f4c81"/>
</svg>
