<svg xmlns="http://www.w3.org/2000/svg" width="12.619" height="20" viewBox="0 0 12.619 20">
  <path id="Path_25" data-name="Path 25" d="M833.758,946.95c0-.013,0-.025,0-.037s0-.013,0-.019-.005-.024-.008-.035a.165.165,0,0,0-.005-.019.269.269,0,0,0-.01-.034.107.107,0,0,0-.006-.016l-.013-.035-.007-.014c-.006-.012-.011-.024-.017-.035l-.007-.012-.02-.035-.007-.01-.024-.034-.007-.008-.027-.033-.006-.006-.032-.033-.005,0c-.011-.011-.023-.021-.035-.031l-.005,0-.038-.029-.005,0a.465.465,0,0,0-.041-.026l0,0-.043-.023-.005,0-.045-.019-.007,0-.034-.013v-7.013l.035-.013.006,0,.045-.019.005,0,.043-.023,0,0,.041-.026.005,0,.038-.029.005,0,.035-.031.005-.005.032-.033.006-.006.027-.034.007-.007.024-.035.007-.01a.31.31,0,0,0,.02-.035l.007-.012.017-.035.007-.014.013-.035a.109.109,0,0,0,.006-.016.288.288,0,0,0,.01-.034l.005-.019c0-.012.005-.024.008-.035s0-.013,0-.019,0-.025,0-.037a.159.159,0,0,0,0-.018c0-.019,0-.038,0-.057a.684.684,0,0,0-.141-.413.7.7,0,0,0-.073-.081.681.681,0,0,0-.229-.144l-.053-.018c-.005-.043-.013-.091-.022-.145s-.021-.111-.037-.174c-.007-.031-.016-.063-.025-.1a3.11,3.11,0,0,0-.913-1.485l-.024-.021a3.346,3.346,0,0,0-.749-.494c-.075-.036-.154-.07-.235-.1a5.536,5.536,0,0,0-1.977-.37h0a.249.249,0,0,1-.034,0l-.013,0-.022-.005-.013,0-.019-.007-.013-.007-.017-.01-.013-.009-.016-.012-.013-.011-.014-.013-.013-.013-.013-.015-.012-.016-.013-.016-.011-.018-.012-.018-.01-.018-.01-.02c0-.007-.007-.014-.01-.021l-.01-.022-.01-.022-.009-.022c0-.007-.005-.016-.008-.024l-.009-.024c0-.007-.005-.016-.007-.025a.228.228,0,0,1-.008-.025c0-.008-.005-.017-.007-.026s0-.017-.007-.026l-.007-.028c0-.009,0-.018-.006-.027l-.007-.028c0-.01,0-.019-.006-.028s0-.02-.006-.03l0-.027c0-.01,0-.022-.006-.033l0-.027,0-.034,0-.027,0-.035c0-.01,0-.018,0-.028l0-.037c0-.009,0-.018,0-.027s0-.025,0-.037,0-.019,0-.028,0-.025,0-.036,0-.019,0-.03l0-.036c0-.01,0-.02,0-.03l0-.039c0-.009,0-.018,0-.026s0-.028,0-.042,0-.017,0-.026,0-.027,0-.042,0-.016,0-.025,0-.028,0-.042v-.025c0-.014,0-.028,0-.042s0-.017,0-.025v-.126a.435.435,0,0,0,.278-.4v-1.859a.437.437,0,0,0-.436-.436h-2.418a.437.437,0,0,0-.436.436v1.859a.436.436,0,0,0,.278.4v.126c0,.008,0,.017,0,.025v.042c0,.008,0,.016,0,.025s0,.027,0,.042,0,.017,0,.025,0,.027,0,.042,0,.017,0,.026,0,.027,0,.042,0,.017,0,.026l0,.039c0,.01,0,.02,0,.03s0,.024,0,.036l0,.03c0,.012,0,.024,0,.036s0,.019,0,.028,0,.025,0,.037,0,.018,0,.027l0,.037c0,.01,0,.018,0,.028s0,.023,0,.035,0,.018,0,.027,0,.023-.005.034l0,.027c0,.011,0,.022-.005.033s0,.019-.005.027,0,.021-.006.03,0,.018-.006.028,0,.019-.006.028l-.007.027-.007.028c0,.009-.005.017-.007.026s0,.018-.008.026a.257.257,0,0,1-.008.025.237.237,0,0,1-.008.025l-.009.024a.217.217,0,0,1-.008.024l-.009.022-.01.022-.01.022c0,.007-.007.014-.01.021a.191.191,0,0,1-.01.02l-.01.018-.012.018-.011.018-.013.016-.012.016c0,.005-.009.01-.013.015l-.012.013-.015.013-.013.011-.016.012a.1.1,0,0,1-.013.009l-.017.01-.014.007-.019.007-.013,0-.022.005-.013,0a.248.248,0,0,1-.034,0h0a5.536,5.536,0,0,0-1.977.37c-.081.033-.16.067-.235.1a3.325,3.325,0,0,0-.748.494l-.025.021a3.043,3.043,0,0,0-.789,1.122,3.248,3.248,0,0,0-.124.363q-.013.049-.024.1c-.015.062-.027.12-.037.174s-.017.1-.022.145l-.052.018a.681.681,0,0,0-.229.144.763.763,0,0,0-.073.081.677.677,0,0,0-.14.413c0,.019,0,.039,0,.057a.147.147,0,0,0,0,.018c0,.013,0,.025,0,.037l0,.019c0,.011,0,.023.007.035s0,.012.005.019.007.023.01.034,0,.011.006.016.009.024.014.035,0,.009.007.014l.016.035.007.012.02.035.007.01c.007.012.016.024.024.035l.007.007.027.034.006.006.032.033.005.005.035.031.005,0,.038.029.005,0,.041.026,0,0,.043.023.005,0,.045.019.005,0,.035.013v7.013l-.034.013-.006,0-.045.019-.005,0-.043.023,0,0a.454.454,0,0,0-.041.026l-.005,0-.038.029-.005,0-.035.031-.005,0-.032.033-.006.006-.027.033-.007.008-.024.034-.007.01-.02.035-.007.012c-.006.011-.011.023-.017.035s0,.01-.006.014-.01.023-.014.035a.107.107,0,0,0-.006.016c0,.011-.008.023-.01.034s0,.012-.005.019-.005.023-.007.035l0,.019c0,.012,0,.024,0,.037a.147.147,0,0,0,0,.019c0,.018,0,.038,0,.057s0,.038,0,.056a.134.134,0,0,0,0,.018c0,.013,0,.025,0,.037l0,.019c0,.012,0,.024.007.036l.005.018c0,.012.007.023.01.035s0,.01.006.016.009.023.014.034a.094.094,0,0,0,.007.014c.005.012.01.024.016.035l.007.012.02.035.007.01c.007.012.016.023.024.034l.007.008c.009.011.018.023.027.033l.006.007c.01.011.021.022.032.033l.005.005.035.03.005,0,.038.029.005,0a.479.479,0,0,0,.041.027l0,0,.043.023.005,0,.045.019.005,0,.035.013v1.853a1.413,1.413,0,0,0,1.409,1.408h8.846a1.413,1.413,0,0,0,1.408-1.408v-1.853l.035-.013.006,0,.045-.019.005,0,.043-.023,0,0c.014-.008.028-.017.041-.027l.005,0,.038-.029.005,0,.035-.03.005-.005c.011-.01.021-.021.032-.033l.006-.007c.01-.01.019-.022.027-.033l.007-.008c.008-.011.016-.022.024-.034l.007-.01a.327.327,0,0,0,.02-.035l.007-.012c.006-.011.011-.023.017-.035l.007-.014.013-.034c0-.006,0-.011.006-.016a.285.285,0,0,0,.01-.035.184.184,0,0,0,.005-.018c0-.012.005-.024.008-.036s0-.013,0-.019,0-.024,0-.037a.145.145,0,0,0,0-.018c0-.019,0-.038,0-.056s0-.039,0-.057A.159.159,0,0,0,833.758,946.95Zm-3.03.266a.445.445,0,0,1-.445.445H824.79a.445.445,0,0,1-.445-.445v-3.043a.445.445,0,0,1,.445-.445h5.493a.445.445,0,0,1,.445.445Z" transform="translate(-821.145 -930.938)" fill="#0f4c81"/>
</svg>
