<svg id="storefront_black_24dp" xmlns="http://www.w3.org/2000/svg" width="24" height="24" viewBox="0 0 24 24">
  <g id="Group_1439" data-name="Group 1439">
    <g id="Group_1438" data-name="Group 1438">
      <rect id="Rectangle_623" data-name="Rectangle 623" width="24" height="24" fill="none"/>
      <rect id="Rectangle_624" data-name="Rectangle 624" width="24" height="24" fill="none"/>
    </g>
  </g>
  <g id="Group_1440" data-name="Group 1440">
    <path id="Path_540" data-name="Path 540" d="M21.9,7.89,20.85,4.52A1.964,1.964,0,0,0,18.94,3H5.05a1.964,1.964,0,0,0-1.9,1.52L2.1,7.89A3.294,3.294,0,0,0,3,11.06V19a2.006,2.006,0,0,0,2,2H19a2.006,2.006,0,0,0,2-2V11.06A3.264,3.264,0,0,0,21.9,7.89ZM13,5h1.96l.54,3.52a1.26,1.26,0,1,1-2.5.17ZM6.44,8.86A1.257,1.257,0,0,1,5.23,10,1.311,1.311,0,0,1,4.04,8.36L5.05,5H7.02ZM11,8.69a1.265,1.265,0,1,1-2.51-.17L9.04,5H11ZM18.77,10a1.25,1.25,0,0,1-1.21-1.14L16.98,5l1.93-.01,1.05,3.37A1.306,1.306,0,0,1,18.77,10Z" fill="#0f4c81"/>
  </g>
</svg>
